<svg width="40" height="40" viewBox="0 0 40 40" fill="none" xmlns="http://www.w3.org/2000/svg">
<g id="_&#235;&#160;&#136;&#236;&#157;&#180;&#236;&#150;&#180;_1" clip-path="url(#clip0_251_5611)">
<path id="Vector" d="M3.86242 8.23725C7.49992 8.86225 9.89992 11.6747 12.7874 13.6622C21.0999 19.8997 29.7749 25.4872 38.7249 30.8372C40.6624 32.0122 39.1999 35.0122 37.0749 34.1997C27.1249 30.2997 17.7499 24.9247 9.09992 18.6622C6.23742 16.3872 2.91242 14.7622 1.46242 11.0997C0.824921 9.58725 2.27492 7.87474 3.86242 8.22474V8.23725Z" fill="#F8B500"/>
<path id="Vector_2" d="M40.3875 4.7003C39.65 7.1253 38.2 8.2628 36.5875 9.1378L31.8125 11.8378C28.65 13.6878 25.4125 15.4128 22.2375 17.2253C15.775 20.7503 9.36252 24.3128 2.71252 27.5003C0.737522 28.4378 -0.987478 25.7753 0.675022 24.3503C9.21252 17.2128 18.4625 11.0128 27.9875 5.2628L32.7625 2.4378C34.35 1.4878 36.1 0.800297 38.5625 1.4128C40 1.7628 40.85 3.2753 40.4 4.6753L40.3875 4.7003Z" fill="#F8B500"/>
<path id="Vector_3" d="M19.0748 0.774697C20.2373 2.3997 20.0623 3.8997 19.8998 5.4122L19.5248 9.9372C18.8123 18.7497 18.1498 28.3872 17.3248 37.1622C17.0998 39.4122 13.7748 39.3997 13.5748 37.1372C12.7998 27.9372 12.8873 18.6997 13.4248 9.4997L13.7373 4.8997C13.8248 3.3622 13.8998 1.8247 15.3498 0.412197C16.4123 -0.650303 18.2248 -0.475303 19.0873 0.749697L19.0748 0.774697Z" fill="#F8B500"/>
</g>
<defs>
<clipPath id="clip0_251_5611">
<rect width="40" height="40" fill="white"/>
</clipPath>
</defs>
</svg>
