<svg width="16" height="17" viewBox="0 0 16 17" fill="none" xmlns="http://www.w3.org/2000/svg">
<path id="Star 1" d="M7.71569 0.36799C7.83415 0.124407 8.16585 0.124407 8.28431 0.367989L10.5576 5.04204C10.6039 5.1374 10.691 5.20375 10.7917 5.22057L15.7306 6.04478C15.988 6.08774 16.0905 6.41875 15.9063 6.61225L12.3724 10.3252C12.3003 10.4009 12.267 10.5083 12.2829 10.614L13.0621 15.7975C13.1027 16.0676 12.8344 16.2722 12.6021 16.1482L8.14473 13.7689C8.05379 13.7203 7.94621 13.7203 7.85527 13.7689L3.39794 16.1482C3.16565 16.2722 2.8973 16.0676 2.93791 15.7975L3.71706 10.6141C3.73296 10.5083 3.69971 10.4009 3.62761 10.3252L0.0936761 6.61225C-0.0904908 6.41875 0.0120079 6.08774 0.269392 6.04478L5.20827 5.22057C5.30903 5.20375 5.39607 5.1374 5.44245 5.04204L7.71569 0.36799Z" fill="#E3E3E3"/>
</svg>
